<?xml version="1.0" standalone="no"?><!DOCTYPE svg PUBLIC "-//W3C//DTD SVG 1.1//EN" "http://www.w3.org/Graphics/SVG/1.1/DTD/svg11.dtd"><svg class="icon" width="150px" height="150.00px" viewBox="0 0 1024 1024" version="1.1" xmlns="http://www.w3.org/2000/svg"><path d="M892.247 299.677c39.359 67.47 59.047 141.149 59.047 221.034 0 79.901-19.685 153.578-59.047 221.033-39.375 67.47-92.787 120.891-160.241 160.256-67.463 39.359-141.134 59.052-221.012 59.052-79.885 0-153.555-19.693-221.009-59.052-67.463-39.369-120.876-92.787-160.237-160.256-39.375-67.455-59.052-141.134-59.052-221.033 0-79.886 19.677-153.563 59.052-221.034 39.361-67.455 92.773-120.88 160.237-160.251 67.455-39.369 141.126-59.057 221.009-59.057 79.877 0 153.55 19.693 221.012 59.057 67.455 39.37 120.866 92.788 160.241 160.251v0zM702.058 191.048c-58.326-34.055-122.020-51.094-191.066-51.094-69.052 0-132.745 17.037-191.060 51.094-58.326 34.065-104.522 80.26-138.569 138.587-34.065 58.332-51.094 122.026-51.094 191.079 0 69.062 17.028 132.755 51.094 191.079 34.047 58.334 80.243 104.53 138.569 138.586 58.317 34.065 122.010 51.094 191.060 51.094 69.047 0 132.74-17.028 191.066-51.094 58.317-34.055 104.511-80.252 138.569-138.586 34.055-58.326 51.094-122.020 51.094-191.079 0-69.054-17.037-132.748-51.094-191.079-34.059-58.327-80.252-104.522-138.569-138.587v0zM614.764 416.932c28.66 28.668 42.994 63.268 42.994 103.779 0 40.523-14.333 75.109-42.994 103.777-28.668 28.668-63.261 43.004-103.771 43.004-40.515 0-75.104-14.335-103.77-43.004-28.665-28.668-42.996-63.253-42.996-103.777 0-40.51 14.333-75.11 42.996-103.779 28.668-28.668 63.253-43.003 103.77-43.003 40.51 0 75.104 14.333 103.771 43.003v0zM614.764 416.932z" /></svg>