<?xml version="1.0" standalone="no"?><!DOCTYPE svg PUBLIC "-//W3C//DTD SVG 1.1//EN" "http://www.w3.org/Graphics/SVG/1.1/DTD/svg11.dtd"><svg class="icon" width="150px" height="150.00px" viewBox="0 0 1024 1024" version="1.1" xmlns="http://www.w3.org/2000/svg"><path d="M812.698413 212.746384c79.825044 79.825044 121.362963 180.238448 124.613757 300.517813-3.250794 119.918166-44.788713 219.97037-124.613757 300.156614-79.825044 80.186243-179.877249 121.724162-299.795414 124.252557-120.640564-2.528395-220.692769-44.066314-300.517813-124.252557-79.825044-80.186243-121.362963-180.238448-124.613757-300.156614 3.250794-120.640564 44.788713-220.692769 124.613757-300.517813 79.825044-79.825044 179.877249-121.362963 300.517813-124.613757C633.182363 91.383422 732.873369 132.92134 812.698413 212.746384zM786.692063 791.387654c72.962257-72.962257 110.888183-164.345679 114.138977-274.150265-3.250794-109.804586-41.17672-201.188007-114.138977-274.150265-72.601058-72.962257-163.98448-110.888183-273.789065-113.416578C402.737213 131.837743 311.353792 169.763668 238.391534 243.087125c-72.962257 72.962257-110.888183 164.345679-114.138977 274.150265 3.250794 109.804586 41.17672 201.188007 114.138977 274.150265 72.601058 72.962257 164.345679 110.888183 274.872663 113.416578C622.707584 902.275838 714.091005 864.349912 786.692063 791.387654z" /></svg>