<?xml version="1.0" standalone="no"?><!DOCTYPE svg PUBLIC "-//W3C//DTD SVG 1.1//EN" "http://www.w3.org/Graphics/SVG/1.1/DTD/svg11.dtd"><svg t="1586496306408" class="icon" viewBox="0 0 1024 1024" version="1.1" xmlns="http://www.w3.org/2000/svg" p-id="15963" xmlns:xlink="http://www.w3.org/1999/xlink" width="150" height="150"><defs><style type="text/css"></style></defs><path d="M933.814065 570.174376v-29.250906c2.182903-133.157109-36.891068-245.358346-113.947559-325.034321a366.072906 366.072906 0 0 0-132.938819-87.316137c-8.076743-70.944362-85.351524-128.573012-179.434663-128.573012s-171.7945 56.755489-179.434662 128.791302a365.199744 365.199744 0 0 0-132.720528 87.316138c-76.40162 79.457685-116.567043 191.00405-114.16585 324.37945v35.581326a92.555106 92.555106 0 0 0-23.793647 94.083138 96.920912 96.920912 0 0 0 60.684715 65.487103 92.118525 92.118525 0 0 0 50.206779 14.625453A341.624387 341.624387 0 0 0 511.858831 1022.253677a341.624387 341.624387 0 0 0 343.15242-271.989767h3.492645a98.012364 98.012364 0 0 0 60.684716-21.829035 97.139203 97.139203 0 0 0 45.622682-59.593263 94.738009 94.738009 0 0 0-30.997229-99.540397z m-101.7233 87.316138a403.400554 403.400554 0 0 1-4.802388 62.867619 350.792582 350.792582 0 0 1-266.532509 163.717757 58.065231 58.065231 0 0 0-46.714133-19.427841c-29.250906 0-52.826263 15.935195-52.826263 35.799617s23.357067 35.799616 52.826263 35.799616a51.07994 51.07994 0 0 0 51.953101-29.905777 407.32978 407.32978 0 0 0 106.962269-27.068003 365.854615 365.854615 0 0 0 125.735237-84.041782c5.893839-5.893839 11.132808-11.787679 16.371776-18.118098-42.130036 129.227883-154.986144 212.178214-301.677254 212.178213h-1.528033c-189.039437 0-320.450224-136.213174-320.450223-330.92816v-18.554679c0-8.295033 1.309742-30.560648 2.401193-51.516521 78.366233-28.596035 149.092304-137.959497 177.68834-188.384566a418.026007 418.026007 0 0 0 178.998081 140.36069 686.95971 686.95971 0 0 0 103.687913 27.286293c68.543168 14.625453 133.3754 28.596035 177.251759 86.006396l1.746323 1.528032z" p-id="15964"></path></svg>