<?xml version="1.0" standalone="no"?><!DOCTYPE svg PUBLIC "-//W3C//DTD SVG 1.1//EN" "http://www.w3.org/Graphics/SVG/1.1/DTD/svg11.dtd"><svg t="1586488169420" class="icon" viewBox="0 0 1024 1024" version="1.1" xmlns="http://www.w3.org/2000/svg" p-id="6216" width="150" height="150" xmlns:xlink="http://www.w3.org/1999/xlink"><defs><style type="text/css"></style></defs><path d="M930.84884 461.344762L476.426123 10.554522a36.324758 36.324758 0 0 0-51.217908 51.581155l454.422717 450.790241L414.310788 960.083683a36.324758 36.324758 0 1 0 51.217908 51.217908l465.320144-447.157765a72.649515 72.649515 0 0 0 0-102.799064z" fill="" p-id="6217"></path><path d="M599.567051 461.344762L144.781087 10.554522A36.324758 36.324758 0 0 0 93.563179 62.135677L547.985896 512.925918 82.665752 960.083683a36.324758 36.324758 0 1 0 51.217908 51.217908l465.683391-447.157765a72.649515 72.649515 0 0 0 0-102.799064z" fill="" p-id="6218"></path></svg>